<svg width="132" height="117" viewBox="0 0 132 117" fill="none" xmlns="http://www.w3.org/2000/svg">
<g opacity="0.3">
<mask id="mask0_23_4" style="mask-type:alpha" maskUnits="userSpaceOnUse" x="0" y="0" width="11" height="11">
<path d="M5.22844 10.6063C8.116 10.6063 10.4568 8.23192 10.4568 5.3031C10.4568 2.37427 8.116 0 5.22844 0C2.34088 0 6.10352e-05 2.37427 6.10352e-05 5.3031C6.10352e-05 8.23192 2.34088 10.6063 5.22844 10.6063Z" fill="url(#paint0_linear_23_4)"/>
</mask>
<g mask="url(#mask0_23_4)">
<path d="M5.22844 10.6063C8.116 10.6063 10.4568 8.23192 10.4568 5.3031C10.4568 2.37427 8.116 0 5.22844 0C2.34088 0 6.10352e-05 2.37427 6.10352e-05 5.3031C6.10352e-05 8.23192 2.34088 10.6063 5.22844 10.6063Z" fill="url(#paint1_linear_23_4)"/>
</g>
<mask id="mask1_23_4" style="mask-type:alpha" maskUnits="userSpaceOnUse" x="30" y="0" width="11" height="11">
<path d="M35.5095 10.6063C38.3971 10.6063 40.7379 8.23192 40.7379 5.3031C40.7379 2.37427 38.3971 0 35.5095 0C32.622 0 30.2811 2.37427 30.2811 5.3031C30.2811 8.23192 32.622 10.6063 35.5095 10.6063Z" fill="url(#paint2_linear_23_4)"/>
</mask>
<g mask="url(#mask1_23_4)">
<path d="M35.5095 10.6063C38.3971 10.6063 40.7379 8.23192 40.7379 5.3031C40.7379 2.37427 38.3971 0 35.5095 0C32.622 0 30.2811 2.37427 30.2811 5.3031C30.2811 8.23192 32.622 10.6063 35.5095 10.6063Z" fill="url(#paint3_linear_23_4)"/>
</g>
<mask id="mask2_23_4" style="mask-type:alpha" maskUnits="userSpaceOnUse" x="60" y="0" width="12" height="11">
<path d="M65.7906 10.6063C68.6781 10.6063 71.019 8.23192 71.019 5.3031C71.019 2.37427 68.6781 0 65.7906 0C62.903 0 60.5622 2.37427 60.5622 5.3031C60.5622 8.23192 62.903 10.6063 65.7906 10.6063Z" fill="url(#paint4_linear_23_4)"/>
</mask>
<g mask="url(#mask2_23_4)">
<path d="M65.7906 10.6063C68.6781 10.6063 71.019 8.23192 71.019 5.3031C71.019 2.37427 68.6781 0 65.7906 0C62.903 0 60.5622 2.37427 60.5622 5.3031C60.5622 8.23192 62.903 10.6063 65.7906 10.6063Z" fill="url(#paint5_linear_23_4)"/>
</g>
<mask id="mask3_23_4" style="mask-type:alpha" maskUnits="userSpaceOnUse" x="90" y="0" width="12" height="11">
<path d="M96.0717 10.6063C98.9592 10.6063 101.3 8.23192 101.3 5.3031C101.3 2.37427 98.9592 0 96.0717 0C93.1841 0 90.8433 2.37427 90.8433 5.3031C90.8433 8.23192 93.1841 10.6063 96.0717 10.6063Z" fill="url(#paint6_linear_23_4)"/>
</mask>
<g mask="url(#mask3_23_4)">
<path d="M96.0717 10.6063C98.9592 10.6063 101.3 8.23192 101.3 5.3031C101.3 2.37427 98.9592 0 96.0717 0C93.1841 0 90.8433 2.37427 90.8433 5.3031C90.8433 8.23192 93.1841 10.6063 96.0717 10.6063Z" fill="url(#paint7_linear_23_4)"/>
</g>
<mask id="mask4_23_4" style="mask-type:alpha" maskUnits="userSpaceOnUse" x="121" y="0" width="11" height="11">
<path d="M126.353 10.6063C129.24 10.6063 131.581 8.23192 131.581 5.3031C131.581 2.37427 129.24 0 126.353 0C123.465 0 121.124 2.37427 121.124 5.3031C121.124 8.23192 123.465 10.6063 126.353 10.6063Z" fill="url(#paint8_linear_23_4)"/>
</mask>
<g mask="url(#mask4_23_4)">
<path d="M126.353 10.6063C129.24 10.6063 131.581 8.23192 131.581 5.3031C131.581 2.37427 129.24 0 126.353 0C123.465 0 121.124 2.37427 121.124 5.3031C121.124 8.23192 123.465 10.6063 126.353 10.6063Z" fill="url(#paint9_linear_23_4)"/>
</g>
<mask id="mask5_23_4" style="mask-type:alpha" maskUnits="userSpaceOnUse" x="0" y="26" width="11" height="12">
<path d="M5.22844 37.2322C8.116 37.2322 10.4568 34.8579 10.4568 31.9291C10.4568 29.0003 8.116 26.626 5.22844 26.626C2.34088 26.626 6.10352e-05 29.0003 6.10352e-05 31.9291C6.10352e-05 34.8579 2.34088 37.2322 5.22844 37.2322Z" fill="url(#paint10_linear_23_4)"/>
</mask>
<g mask="url(#mask5_23_4)">
<path d="M5.22844 37.2322C8.116 37.2322 10.4568 34.8579 10.4568 31.9291C10.4568 29.0003 8.116 26.626 5.22844 26.626C2.34088 26.626 6.10352e-05 29.0003 6.10352e-05 31.9291C6.10352e-05 34.8579 2.34088 37.2322 5.22844 37.2322Z" fill="url(#paint11_linear_23_4)"/>
</g>
<mask id="mask6_23_4" style="mask-type:alpha" maskUnits="userSpaceOnUse" x="30" y="26" width="11" height="12">
<path d="M35.5095 37.2322C38.3971 37.2322 40.7379 34.8579 40.7379 31.9291C40.7379 29.0003 38.3971 26.626 35.5095 26.626C32.622 26.626 30.2811 29.0003 30.2811 31.9291C30.2811 34.8579 32.622 37.2322 35.5095 37.2322Z" fill="url(#paint12_linear_23_4)"/>
</mask>
<g mask="url(#mask6_23_4)">
<path d="M35.5095 37.2322C38.3971 37.2322 40.7379 34.8579 40.7379 31.9291C40.7379 29.0003 38.3971 26.626 35.5095 26.626C32.622 26.626 30.2811 29.0003 30.2811 31.9291C30.2811 34.8579 32.622 37.2322 35.5095 37.2322Z" fill="url(#paint13_linear_23_4)"/>
</g>
<mask id="mask7_23_4" style="mask-type:alpha" maskUnits="userSpaceOnUse" x="60" y="26" width="12" height="12">
<path d="M65.7906 37.2322C68.6781 37.2322 71.019 34.8579 71.019 31.9291C71.019 29.0003 68.6781 26.626 65.7906 26.626C62.903 26.626 60.5622 29.0003 60.5622 31.9291C60.5622 34.8579 62.903 37.2322 65.7906 37.2322Z" fill="url(#paint14_linear_23_4)"/>
</mask>
<g mask="url(#mask7_23_4)">
<path d="M65.7906 37.2322C68.6781 37.2322 71.019 34.8579 71.019 31.9291C71.019 29.0003 68.6781 26.626 65.7906 26.626C62.903 26.626 60.5622 29.0003 60.5622 31.9291C60.5622 34.8579 62.903 37.2322 65.7906 37.2322Z" fill="url(#paint15_linear_23_4)"/>
</g>
<mask id="mask8_23_4" style="mask-type:alpha" maskUnits="userSpaceOnUse" x="90" y="26" width="12" height="12">
<path d="M96.0717 37.2322C98.9592 37.2322 101.3 34.8579 101.3 31.9291C101.3 29.0003 98.9592 26.626 96.0717 26.626C93.1841 26.626 90.8433 29.0003 90.8433 31.9291C90.8433 34.8579 93.1841 37.2322 96.0717 37.2322Z" fill="url(#paint16_linear_23_4)"/>
</mask>
<g mask="url(#mask8_23_4)">
<path d="M96.0717 37.2322C98.9592 37.2322 101.3 34.8579 101.3 31.9291C101.3 29.0003 98.9592 26.626 96.0717 26.626C93.1841 26.626 90.8433 29.0003 90.8433 31.9291C90.8433 34.8579 93.1841 37.2322 96.0717 37.2322Z" fill="url(#paint17_linear_23_4)"/>
</g>
<mask id="mask9_23_4" style="mask-type:alpha" maskUnits="userSpaceOnUse" x="121" y="26" width="11" height="12">
<path d="M126.353 37.2322C129.24 37.2322 131.581 34.8579 131.581 31.9291C131.581 29.0003 129.24 26.626 126.353 26.626C123.465 26.626 121.124 29.0003 121.124 31.9291C121.124 34.8579 123.465 37.2322 126.353 37.2322Z" fill="url(#paint18_linear_23_4)"/>
</mask>
<g mask="url(#mask9_23_4)">
<path d="M126.353 37.2322C129.24 37.2322 131.581 34.8579 131.581 31.9291C131.581 29.0003 129.24 26.626 126.353 26.626C123.465 26.626 121.124 29.0003 121.124 31.9291C121.124 34.8579 123.465 37.2322 126.353 37.2322Z" fill="url(#paint19_linear_23_4)"/>
</g>
<mask id="mask10_23_4" style="mask-type:alpha" maskUnits="userSpaceOnUse" x="0" y="53" width="11" height="11">
<path d="M5.22844 63.803C8.116 63.803 10.4568 61.4288 10.4568 58.4999C10.4568 55.5711 8.116 53.1968 5.22844 53.1968C2.34088 53.1968 6.10352e-05 55.5711 6.10352e-05 58.4999C6.10352e-05 61.4288 2.34088 63.803 5.22844 63.803Z" fill="url(#paint20_linear_23_4)"/>
</mask>
<g mask="url(#mask10_23_4)">
<path d="M5.22844 63.803C8.116 63.803 10.4568 61.4288 10.4568 58.4999C10.4568 55.5711 8.116 53.1968 5.22844 53.1968C2.34088 53.1968 6.10352e-05 55.5711 6.10352e-05 58.4999C6.10352e-05 61.4288 2.34088 63.803 5.22844 63.803Z" fill="url(#paint21_linear_23_4)"/>
</g>
<mask id="mask11_23_4" style="mask-type:alpha" maskUnits="userSpaceOnUse" x="30" y="53" width="11" height="11">
<path d="M35.5095 63.803C38.3971 63.803 40.7379 61.4288 40.7379 58.4999C40.7379 55.5711 38.3971 53.1968 35.5095 53.1968C32.622 53.1968 30.2811 55.5711 30.2811 58.4999C30.2811 61.4288 32.622 63.803 35.5095 63.803Z" fill="url(#paint22_linear_23_4)"/>
</mask>
<g mask="url(#mask11_23_4)">
<path d="M35.5095 63.803C38.3971 63.803 40.7379 61.4288 40.7379 58.4999C40.7379 55.5711 38.3971 53.1968 35.5095 53.1968C32.622 53.1968 30.2811 55.5711 30.2811 58.4999C30.2811 61.4288 32.622 63.803 35.5095 63.803Z" fill="url(#paint23_linear_23_4)"/>
</g>
<mask id="mask12_23_4" style="mask-type:alpha" maskUnits="userSpaceOnUse" x="60" y="53" width="12" height="11">
<path d="M65.7906 63.803C68.6781 63.803 71.019 61.4288 71.019 58.4999C71.019 55.5711 68.6781 53.1968 65.7906 53.1968C62.903 53.1968 60.5622 55.5711 60.5622 58.4999C60.5622 61.4288 62.903 63.803 65.7906 63.803Z" fill="url(#paint24_linear_23_4)"/>
</mask>
<g mask="url(#mask12_23_4)">
<path d="M65.7906 63.803C68.6781 63.803 71.019 61.4288 71.019 58.4999C71.019 55.5711 68.6781 53.1968 65.7906 53.1968C62.903 53.1968 60.5622 55.5711 60.5622 58.4999C60.5622 61.4288 62.903 63.803 65.7906 63.803Z" fill="url(#paint25_linear_23_4)"/>
</g>
<mask id="mask13_23_4" style="mask-type:alpha" maskUnits="userSpaceOnUse" x="90" y="53" width="12" height="11">
<path d="M96.0717 63.803C98.9592 63.803 101.3 61.4288 101.3 58.4999C101.3 55.5711 98.9592 53.1968 96.0717 53.1968C93.1841 53.1968 90.8433 55.5711 90.8433 58.4999C90.8433 61.4288 93.1841 63.803 96.0717 63.803Z" fill="url(#paint26_linear_23_4)"/>
</mask>
<g mask="url(#mask13_23_4)">
<path d="M96.0717 63.803C98.9592 63.803 101.3 61.4288 101.3 58.4999C101.3 55.5711 98.9592 53.1968 96.0717 53.1968C93.1841 53.1968 90.8433 55.5711 90.8433 58.4999C90.8433 61.4288 93.1841 63.803 96.0717 63.803Z" fill="url(#paint27_linear_23_4)"/>
</g>
<mask id="mask14_23_4" style="mask-type:alpha" maskUnits="userSpaceOnUse" x="121" y="53" width="11" height="11">
<path d="M126.353 63.803C129.24 63.803 131.581 61.4288 131.581 58.4999C131.581 55.5711 129.24 53.1968 126.353 53.1968C123.465 53.1968 121.124 55.5711 121.124 58.4999C121.124 61.4288 123.465 63.803 126.353 63.803Z" fill="url(#paint28_linear_23_4)"/>
</mask>
<g mask="url(#mask14_23_4)">
<path d="M126.353 63.803C129.24 63.803 131.581 61.4288 131.581 58.4999C131.581 55.5711 129.24 53.1968 126.353 53.1968C123.465 53.1968 121.124 55.5711 121.124 58.4999C121.124 61.4288 123.465 63.803 126.353 63.803Z" fill="url(#paint29_linear_23_4)"/>
</g>
<mask id="mask15_23_4" style="mask-type:alpha" maskUnits="userSpaceOnUse" x="0" y="79" width="11" height="12">
<path d="M5.22844 90.4291C8.116 90.4291 10.4568 88.0548 10.4568 85.126C10.4568 82.1971 8.116 79.8229 5.22844 79.8229C2.34088 79.8229 6.10352e-05 82.1971 6.10352e-05 85.126C6.10352e-05 88.0548 2.34088 90.4291 5.22844 90.4291Z" fill="url(#paint30_linear_23_4)"/>
</mask>
<g mask="url(#mask15_23_4)">
<path d="M5.22844 90.4291C8.116 90.4291 10.4568 88.0548 10.4568 85.126C10.4568 82.1971 8.116 79.8229 5.22844 79.8229C2.34088 79.8229 6.10352e-05 82.1971 6.10352e-05 85.126C6.10352e-05 88.0548 2.34088 90.4291 5.22844 90.4291Z" fill="url(#paint31_linear_23_4)"/>
</g>
<mask id="mask16_23_4" style="mask-type:alpha" maskUnits="userSpaceOnUse" x="30" y="79" width="11" height="12">
<path d="M35.5095 90.4291C38.3971 90.4291 40.7379 88.0548 40.7379 85.126C40.7379 82.1971 38.3971 79.8229 35.5095 79.8229C32.622 79.8229 30.2811 82.1971 30.2811 85.126C30.2811 88.0548 32.622 90.4291 35.5095 90.4291Z" fill="url(#paint32_linear_23_4)"/>
</mask>
<g mask="url(#mask16_23_4)">
<path d="M35.5095 90.4291C38.3971 90.4291 40.7379 88.0548 40.7379 85.126C40.7379 82.1971 38.3971 79.8229 35.5095 79.8229C32.622 79.8229 30.2811 82.1971 30.2811 85.126C30.2811 88.0548 32.622 90.4291 35.5095 90.4291Z" fill="url(#paint33_linear_23_4)"/>
</g>
<mask id="mask17_23_4" style="mask-type:alpha" maskUnits="userSpaceOnUse" x="60" y="79" width="12" height="12">
<path d="M65.7906 90.4291C68.6781 90.4291 71.019 88.0548 71.019 85.126C71.019 82.1971 68.6781 79.8229 65.7906 79.8229C62.903 79.8229 60.5622 82.1971 60.5622 85.126C60.5622 88.0548 62.903 90.4291 65.7906 90.4291Z" fill="url(#paint34_linear_23_4)"/>
</mask>
<g mask="url(#mask17_23_4)">
<path d="M65.7906 90.4291C68.6781 90.4291 71.019 88.0548 71.019 85.126C71.019 82.1971 68.6781 79.8229 65.7906 79.8229C62.903 79.8229 60.5622 82.1971 60.5622 85.126C60.5622 88.0548 62.903 90.4291 65.7906 90.4291Z" fill="url(#paint35_linear_23_4)"/>
</g>
<mask id="mask18_23_4" style="mask-type:alpha" maskUnits="userSpaceOnUse" x="90" y="79" width="12" height="12">
<path d="M96.0717 90.4291C98.9592 90.4291 101.3 88.0548 101.3 85.126C101.3 82.1971 98.9592 79.8229 96.0717 79.8229C93.1841 79.8229 90.8433 82.1971 90.8433 85.126C90.8433 88.0548 93.1841 90.4291 96.0717 90.4291Z" fill="url(#paint36_linear_23_4)"/>
</mask>
<g mask="url(#mask18_23_4)">
<path d="M96.0717 90.4291C98.9592 90.4291 101.3 88.0548 101.3 85.126C101.3 82.1971 98.9592 79.8229 96.0717 79.8229C93.1841 79.8229 90.8433 82.1971 90.8433 85.126C90.8433 88.0548 93.1841 90.4291 96.0717 90.4291Z" fill="url(#paint37_linear_23_4)"/>
</g>
<mask id="mask19_23_4" style="mask-type:alpha" maskUnits="userSpaceOnUse" x="121" y="79" width="11" height="12">
<path d="M126.353 90.4291C129.24 90.4291 131.581 88.0548 131.581 85.126C131.581 82.1971 129.24 79.8229 126.353 79.8229C123.465 79.8229 121.124 82.1971 121.124 85.126C121.124 88.0548 123.465 90.4291 126.353 90.4291Z" fill="url(#paint38_linear_23_4)"/>
</mask>
<g mask="url(#mask19_23_4)">
<path d="M126.353 90.4291C129.24 90.4291 131.581 88.0548 131.581 85.126C131.581 82.1971 129.24 79.8229 126.353 79.8229C123.465 79.8229 121.124 82.1971 121.124 85.126C121.124 88.0548 123.465 90.4291 126.353 90.4291Z" fill="url(#paint39_linear_23_4)"/>
</g>
<mask id="mask20_23_4" style="mask-type:alpha" maskUnits="userSpaceOnUse" x="0" y="106" width="11" height="11">
<path d="M5.22844 117C8.116 117 10.4568 114.626 10.4568 111.697C10.4568 108.768 8.116 106.394 5.22844 106.394C2.34088 106.394 6.10352e-05 108.768 6.10352e-05 111.697C6.10352e-05 114.626 2.34088 117 5.22844 117Z" fill="url(#paint40_linear_23_4)"/>
</mask>
<g mask="url(#mask20_23_4)">
<path d="M5.22844 117C8.116 117 10.4568 114.626 10.4568 111.697C10.4568 108.768 8.116 106.394 5.22844 106.394C2.34088 106.394 6.10352e-05 108.768 6.10352e-05 111.697C6.10352e-05 114.626 2.34088 117 5.22844 117Z" fill="url(#paint41_linear_23_4)"/>
</g>
<mask id="mask21_23_4" style="mask-type:alpha" maskUnits="userSpaceOnUse" x="30" y="106" width="11" height="11">
<path d="M35.5095 117C38.3971 117 40.7379 114.626 40.7379 111.697C40.7379 108.768 38.3971 106.394 35.5095 106.394C32.622 106.394 30.2811 108.768 30.2811 111.697C30.2811 114.626 32.622 117 35.5095 117Z" fill="url(#paint42_linear_23_4)"/>
</mask>
<g mask="url(#mask21_23_4)">
<path d="M35.5095 117C38.3971 117 40.7379 114.626 40.7379 111.697C40.7379 108.768 38.3971 106.394 35.5095 106.394C32.622 106.394 30.2811 108.768 30.2811 111.697C30.2811 114.626 32.622 117 35.5095 117Z" fill="url(#paint43_linear_23_4)"/>
</g>
<mask id="mask22_23_4" style="mask-type:alpha" maskUnits="userSpaceOnUse" x="60" y="106" width="12" height="11">
<path d="M65.7906 117C68.6781 117 71.019 114.626 71.019 111.697C71.019 108.768 68.6781 106.394 65.7906 106.394C62.903 106.394 60.5622 108.768 60.5622 111.697C60.5622 114.626 62.903 117 65.7906 117Z" fill="url(#paint44_linear_23_4)"/>
</mask>
<g mask="url(#mask22_23_4)">
<path d="M65.7906 117C68.6781 117 71.019 114.626 71.019 111.697C71.019 108.768 68.6781 106.394 65.7906 106.394C62.903 106.394 60.5622 108.768 60.5622 111.697C60.5622 114.626 62.903 117 65.7906 117Z" fill="url(#paint45_linear_23_4)"/>
</g>
<mask id="mask23_23_4" style="mask-type:alpha" maskUnits="userSpaceOnUse" x="90" y="106" width="12" height="11">
<path d="M96.0717 117C98.9592 117 101.3 114.626 101.3 111.697C101.3 108.768 98.9592 106.394 96.0717 106.394C93.1841 106.394 90.8433 108.768 90.8433 111.697C90.8433 114.626 93.1841 117 96.0717 117Z" fill="url(#paint46_linear_23_4)"/>
</mask>
<g mask="url(#mask23_23_4)">
<path d="M96.0717 117C98.9592 117 101.3 114.626 101.3 111.697C101.3 108.768 98.9592 106.394 96.0717 106.394C93.1841 106.394 90.8433 108.768 90.8433 111.697C90.8433 114.626 93.1841 117 96.0717 117Z" fill="url(#paint47_linear_23_4)"/>
</g>
<mask id="mask24_23_4" style="mask-type:alpha" maskUnits="userSpaceOnUse" x="121" y="106" width="11" height="11">
<path d="M126.353 117C129.24 117 131.581 114.626 131.581 111.697C131.581 108.768 129.24 106.394 126.353 106.394C123.465 106.394 121.124 108.768 121.124 111.697C121.124 114.626 123.465 117 126.353 117Z" fill="url(#paint48_linear_23_4)"/>
</mask>
<g mask="url(#mask24_23_4)">
<path d="M126.353 117C129.24 117 131.581 114.626 131.581 111.697C131.581 108.768 129.24 106.394 126.353 106.394C123.465 106.394 121.124 108.768 121.124 111.697C121.124 114.626 123.465 117 126.353 117Z" fill="url(#paint49_linear_23_4)"/>
</g>
</g>
<defs>
<linearGradient id="paint0_linear_23_4" x1="54.9961" y1="133.414" x2="-18.5658" y2="-50.688" gradientUnits="userSpaceOnUse">
<stop/>
<stop offset="1" stop-color="white"/>
</linearGradient>
<linearGradient id="paint1_linear_23_4" x1="54.9961" y1="133.414" x2="-18.5658" y2="-50.688" gradientUnits="userSpaceOnUse">
<stop stop-color="#97C3F9"/>
<stop offset="1" stop-color="#93C1F9"/>
</linearGradient>
<linearGradient id="paint2_linear_23_4" x1="81.2006" y1="122.944" x2="7.63876" y2="-61.1583" gradientUnits="userSpaceOnUse">
<stop/>
<stop offset="1" stop-color="white"/>
</linearGradient>
<linearGradient id="paint3_linear_23_4" x1="81.2006" y1="122.944" x2="7.63876" y2="-61.1583" gradientUnits="userSpaceOnUse">
<stop stop-color="#97C3F9"/>
<stop offset="1" stop-color="#93C1F9"/>
</linearGradient>
<linearGradient id="paint4_linear_23_4" x1="107.405" y1="112.474" x2="33.8432" y2="-71.6286" gradientUnits="userSpaceOnUse">
<stop/>
<stop offset="1" stop-color="white"/>
</linearGradient>
<linearGradient id="paint5_linear_23_4" x1="107.405" y1="112.474" x2="33.8432" y2="-71.6286" gradientUnits="userSpaceOnUse">
<stop stop-color="#97C3F9"/>
<stop offset="1" stop-color="#93C1F9"/>
</linearGradient>
<linearGradient id="paint6_linear_23_4" x1="133.609" y1="102.003" x2="60.0474" y2="-82.0994" gradientUnits="userSpaceOnUse">
<stop/>
<stop offset="1" stop-color="white"/>
</linearGradient>
<linearGradient id="paint7_linear_23_4" x1="133.609" y1="102.003" x2="60.0474" y2="-82.0994" gradientUnits="userSpaceOnUse">
<stop stop-color="#97C3F9"/>
<stop offset="1" stop-color="#93C1F9"/>
</linearGradient>
<linearGradient id="paint8_linear_23_4" x1="159.814" y1="91.5326" x2="86.2517" y2="-92.5699" gradientUnits="userSpaceOnUse">
<stop/>
<stop offset="1" stop-color="white"/>
</linearGradient>
<linearGradient id="paint9_linear_23_4" x1="159.814" y1="91.5326" x2="86.2517" y2="-92.5699" gradientUnits="userSpaceOnUse">
<stop stop-color="#97C3F9"/>
<stop offset="1" stop-color="#93C1F9"/>
</linearGradient>
<linearGradient id="paint10_linear_23_4" x1="46.0539" y1="136.987" x2="-27.5067" y2="-47.1141" gradientUnits="userSpaceOnUse">
<stop/>
<stop offset="1" stop-color="white"/>
</linearGradient>
<linearGradient id="paint11_linear_23_4" x1="46.0539" y1="136.987" x2="-27.5067" y2="-47.1141" gradientUnits="userSpaceOnUse">
<stop stop-color="#97C3F9"/>
<stop offset="1" stop-color="#93C1F9"/>
</linearGradient>
<linearGradient id="paint12_linear_23_4" x1="72.2582" y1="126.516" x2="-1.30239" y2="-57.585" gradientUnits="userSpaceOnUse">
<stop/>
<stop offset="1" stop-color="white"/>
</linearGradient>
<linearGradient id="paint13_linear_23_4" x1="72.2582" y1="126.516" x2="-1.30239" y2="-57.585" gradientUnits="userSpaceOnUse">
<stop stop-color="#97C3F9"/>
<stop offset="1" stop-color="#93C1F9"/>
</linearGradient>
<linearGradient id="paint14_linear_23_4" x1="98.4625" y1="116.046" x2="24.9019" y2="-68.0553" gradientUnits="userSpaceOnUse">
<stop/>
<stop offset="1" stop-color="white"/>
</linearGradient>
<linearGradient id="paint15_linear_23_4" x1="98.4625" y1="116.046" x2="24.9019" y2="-68.0553" gradientUnits="userSpaceOnUse">
<stop stop-color="#97C3F9"/>
<stop offset="1" stop-color="#93C1F9"/>
</linearGradient>
<linearGradient id="paint16_linear_23_4" x1="124.667" y1="105.575" x2="51.1062" y2="-78.5258" gradientUnits="userSpaceOnUse">
<stop/>
<stop offset="1" stop-color="white"/>
</linearGradient>
<linearGradient id="paint17_linear_23_4" x1="124.667" y1="105.575" x2="51.1062" y2="-78.5258" gradientUnits="userSpaceOnUse">
<stop stop-color="#97C3F9"/>
<stop offset="1" stop-color="#93C1F9"/>
</linearGradient>
<linearGradient id="paint18_linear_23_4" x1="150.871" y1="95.105" x2="77.3106" y2="-88.9961" gradientUnits="userSpaceOnUse">
<stop/>
<stop offset="1" stop-color="white"/>
</linearGradient>
<linearGradient id="paint19_linear_23_4" x1="150.871" y1="95.105" x2="77.3106" y2="-88.9961" gradientUnits="userSpaceOnUse">
<stop stop-color="#97C3F9"/>
<stop offset="1" stop-color="#93C1F9"/>
</linearGradient>
<linearGradient id="paint20_linear_23_4" x1="37.1114" y1="140.561" x2="-36.4505" y2="-43.5418" gradientUnits="userSpaceOnUse">
<stop/>
<stop offset="1" stop-color="white"/>
</linearGradient>
<linearGradient id="paint21_linear_23_4" x1="37.1114" y1="140.561" x2="-36.4505" y2="-43.5418" gradientUnits="userSpaceOnUse">
<stop stop-color="#97C3F9"/>
<stop offset="1" stop-color="#93C1F9"/>
</linearGradient>
<linearGradient id="paint22_linear_23_4" x1="63.3158" y1="130.09" x2="-10.246" y2="-54.0123" gradientUnits="userSpaceOnUse">
<stop/>
<stop offset="1" stop-color="white"/>
</linearGradient>
<linearGradient id="paint23_linear_23_4" x1="63.3158" y1="130.09" x2="-10.246" y2="-54.0123" gradientUnits="userSpaceOnUse">
<stop stop-color="#97C3F9"/>
<stop offset="1" stop-color="#93C1F9"/>
</linearGradient>
<linearGradient id="paint24_linear_23_4" x1="89.5201" y1="119.62" x2="15.9584" y2="-64.4827" gradientUnits="userSpaceOnUse">
<stop/>
<stop offset="1" stop-color="white"/>
</linearGradient>
<linearGradient id="paint25_linear_23_4" x1="89.5201" y1="119.62" x2="15.9584" y2="-64.4827" gradientUnits="userSpaceOnUse">
<stop stop-color="#97C3F9"/>
<stop offset="1" stop-color="#93C1F9"/>
</linearGradient>
<linearGradient id="paint26_linear_23_4" x1="115.724" y1="109.149" x2="42.1626" y2="-74.9534" gradientUnits="userSpaceOnUse">
<stop/>
<stop offset="1" stop-color="white"/>
</linearGradient>
<linearGradient id="paint27_linear_23_4" x1="115.724" y1="109.149" x2="42.1626" y2="-74.9534" gradientUnits="userSpaceOnUse">
<stop stop-color="#97C3F9"/>
<stop offset="1" stop-color="#93C1F9"/>
</linearGradient>
<linearGradient id="paint28_linear_23_4" x1="141.929" y1="98.6786" x2="68.3669" y2="-85.4238" gradientUnits="userSpaceOnUse">
<stop/>
<stop offset="1" stop-color="white"/>
</linearGradient>
<linearGradient id="paint29_linear_23_4" x1="141.929" y1="98.6786" x2="68.3669" y2="-85.4238" gradientUnits="userSpaceOnUse">
<stop stop-color="#97C3F9"/>
<stop offset="1" stop-color="#93C1F9"/>
</linearGradient>
<linearGradient id="paint30_linear_23_4" x1="28.169" y1="144.134" x2="-45.3929" y2="-39.9687" gradientUnits="userSpaceOnUse">
<stop/>
<stop offset="1" stop-color="white"/>
</linearGradient>
<linearGradient id="paint31_linear_23_4" x1="28.169" y1="144.134" x2="-45.3929" y2="-39.9687" gradientUnits="userSpaceOnUse">
<stop stop-color="#97C3F9"/>
<stop offset="1" stop-color="#93C1F9"/>
</linearGradient>
<linearGradient id="paint32_linear_23_4" x1="54.3734" y1="133.663" x2="-19.1884" y2="-50.4392" gradientUnits="userSpaceOnUse">
<stop/>
<stop offset="1" stop-color="white"/>
</linearGradient>
<linearGradient id="paint33_linear_23_4" x1="54.3734" y1="133.663" x2="-19.1884" y2="-50.4392" gradientUnits="userSpaceOnUse">
<stop stop-color="#97C3F9"/>
<stop offset="1" stop-color="#93C1F9"/>
</linearGradient>
<linearGradient id="paint34_linear_23_4" x1="80.5777" y1="123.193" x2="7.01596" y2="-60.9096" gradientUnits="userSpaceOnUse">
<stop/>
<stop offset="1" stop-color="white"/>
</linearGradient>
<linearGradient id="paint35_linear_23_4" x1="80.5777" y1="123.193" x2="7.01596" y2="-60.9096" gradientUnits="userSpaceOnUse">
<stop stop-color="#97C3F9"/>
<stop offset="1" stop-color="#93C1F9"/>
</linearGradient>
<linearGradient id="paint36_linear_23_4" x1="106.782" y1="112.722" x2="33.2202" y2="-71.3802" gradientUnits="userSpaceOnUse">
<stop/>
<stop offset="1" stop-color="white"/>
</linearGradient>
<linearGradient id="paint37_linear_23_4" x1="106.782" y1="112.722" x2="33.2202" y2="-71.3802" gradientUnits="userSpaceOnUse">
<stop stop-color="#97C3F9"/>
<stop offset="1" stop-color="#93C1F9"/>
</linearGradient>
<linearGradient id="paint38_linear_23_4" x1="132.986" y1="102.252" x2="59.4246" y2="-81.8507" gradientUnits="userSpaceOnUse">
<stop/>
<stop offset="1" stop-color="white"/>
</linearGradient>
<linearGradient id="paint39_linear_23_4" x1="132.986" y1="102.252" x2="59.4246" y2="-81.8507" gradientUnits="userSpaceOnUse">
<stop stop-color="#97C3F9"/>
<stop offset="1" stop-color="#93C1F9"/>
</linearGradient>
<linearGradient id="paint40_linear_23_4" x1="19.2266" y1="147.707" x2="-54.3352" y2="-36.3956" gradientUnits="userSpaceOnUse">
<stop/>
<stop offset="1" stop-color="white"/>
</linearGradient>
<linearGradient id="paint41_linear_23_4" x1="19.2266" y1="147.707" x2="-54.3352" y2="-36.3956" gradientUnits="userSpaceOnUse">
<stop stop-color="#97C3F9"/>
<stop offset="1" stop-color="#93C1F9"/>
</linearGradient>
<linearGradient id="paint42_linear_23_4" x1="45.431" y1="137.236" x2="-28.1308" y2="-46.866" gradientUnits="userSpaceOnUse">
<stop/>
<stop offset="1" stop-color="white"/>
</linearGradient>
<linearGradient id="paint43_linear_23_4" x1="45.431" y1="137.236" x2="-28.1308" y2="-46.866" gradientUnits="userSpaceOnUse">
<stop stop-color="#97C3F9"/>
<stop offset="1" stop-color="#93C1F9"/>
</linearGradient>
<linearGradient id="paint44_linear_23_4" x1="71.6354" y1="126.766" x2="-1.92638" y2="-57.3364" gradientUnits="userSpaceOnUse">
<stop/>
<stop offset="1" stop-color="white"/>
</linearGradient>
<linearGradient id="paint45_linear_23_4" x1="71.6354" y1="126.766" x2="-1.92638" y2="-57.3364" gradientUnits="userSpaceOnUse">
<stop stop-color="#97C3F9"/>
<stop offset="1" stop-color="#93C1F9"/>
</linearGradient>
<linearGradient id="paint46_linear_23_4" x1="97.8397" y1="116.295" x2="24.2779" y2="-67.807" gradientUnits="userSpaceOnUse">
<stop/>
<stop offset="1" stop-color="white"/>
</linearGradient>
<linearGradient id="paint47_linear_23_4" x1="97.8397" y1="116.295" x2="24.2779" y2="-67.807" gradientUnits="userSpaceOnUse">
<stop stop-color="#97C3F9"/>
<stop offset="1" stop-color="#93C1F9"/>
</linearGradient>
<linearGradient id="paint48_linear_23_4" x1="124.044" y1="105.825" x2="50.4822" y2="-78.2775" gradientUnits="userSpaceOnUse">
<stop/>
<stop offset="1" stop-color="white"/>
</linearGradient>
<linearGradient id="paint49_linear_23_4" x1="124.044" y1="105.825" x2="50.4822" y2="-78.2775" gradientUnits="userSpaceOnUse">
<stop stop-color="#97C3F9"/>
<stop offset="1" stop-color="#93C1F9"/>
</linearGradient>
</defs>
</svg>
