<svg width="70" height="95" viewBox="0 0 70 95" fill="none" xmlns="http://www.w3.org/2000/svg">
<g clip-path="url(#clip0_105_2)">
<path d="M69.4225 4.31029V90.7055C69.4225 93.0896 67.4963 95.0158 65.1122 95.0158H4.31029C1.92621 95 0 93.0738 0 90.7055V4.31029C0 1.92621 1.92621 0 4.31029 0H65.128C67.4963 0 69.4225 1.92621 69.4225 4.31029Z" fill="url(#paint0_linear_105_2)"/>
<path d="M65 7.94666V87.0533C65 89.2363 63.3075 91 61.2126 91H7.78735C5.69252 90.9855 4 89.2218 4 87.0533V7.94666C4 5.76371 5.69252 4 7.78735 4H61.2265C63.3075 4 65 5.76371 65 7.94666Z" fill="url(#paint1_linear_105_2)"/>
<path opacity="0.5" d="M58.5756 39.6767H10.8467C10.5309 39.6767 10.2783 39.4241 10.2783 39.1083V37.2926C10.2783 36.9769 10.5309 36.7242 10.8467 36.7242H58.5756C58.8914 36.7242 59.144 36.9769 59.144 37.2926V39.1083C59.1282 39.4241 58.8914 39.6767 58.5756 39.6767Z" fill="url(#paint2_linear_105_2)"/>
<path d="M58.5756 17.0517H34.8927C34.577 17.0517 34.3243 16.7991 34.3243 16.4833V14.6834C34.3243 14.3676 34.577 14.115 34.8927 14.115H58.5756C58.8914 14.115 59.144 14.3676 59.144 14.6834V16.4991C59.1282 16.7991 58.8914 17.0517 58.5756 17.0517Z" fill="url(#paint3_linear_105_2)"/>
<path opacity="0.5" d="M51.5655 24.7249H34.8927C34.577 24.7249 34.3243 24.4723 34.3243 24.1565V22.3408C34.3243 22.0251 34.577 21.7725 34.8927 21.7725H51.5655C51.8813 21.7725 52.1339 22.0251 52.1339 22.3408V24.1565C52.1181 24.4723 51.8813 24.7249 51.5655 24.7249Z" fill="url(#paint4_linear_105_2)"/>
<path opacity="0.5" d="M58.5756 48.2973H10.8467C10.5309 48.2973 10.2783 48.0447 10.2783 47.7289V45.9132C10.2783 45.5975 10.5309 45.3448 10.8467 45.3448H58.5756C58.8914 45.3448 59.144 45.5975 59.144 45.9132V47.7289C59.1282 48.0447 58.8914 48.2973 58.5756 48.2973Z" fill="url(#paint5_linear_105_2)"/>
<path opacity="0.5" d="M58.5756 56.9179H10.8467C10.5309 56.9179 10.2783 56.6652 10.2783 56.3495V54.5338C10.2783 54.218 10.5309 53.9654 10.8467 53.9654H58.5756C58.8914 53.9654 59.144 54.218 59.144 54.5338V56.3653C59.1282 56.6652 58.8914 56.9179 58.5756 56.9179Z" fill="url(#paint6_linear_105_2)"/>
<path opacity="0.5" d="M58.5756 65.5542H10.8467C10.5309 65.5542 10.2783 65.3016 10.2783 64.9859V63.1702C10.2783 62.8544 10.5309 62.6018 10.8467 62.6018H58.5756C58.8914 62.6018 59.144 62.8544 59.144 63.1702V64.9859C59.1282 65.3016 58.8914 65.5542 58.5756 65.5542Z" fill="url(#paint7_linear_105_2)"/>
<path opacity="0.5" d="M58.5756 74.1749H10.8467C10.5309 74.1749 10.2783 73.9222 10.2783 73.6065V71.7907C10.2783 71.475 10.5309 71.2224 10.8467 71.2224H58.5756C58.8914 71.2224 59.144 71.475 59.144 71.7907V73.6065C59.1282 73.9222 58.8914 74.1749 58.5756 74.1749Z" fill="url(#paint8_linear_105_2)"/>
<path opacity="0.5" d="M58.5756 82.7954H10.8467C10.5309 82.7954 10.2783 82.5428 10.2783 82.227V80.4113C10.2783 80.0955 10.5309 79.8429 10.8467 79.8429H58.5756C58.8914 79.8429 59.144 80.0955 59.144 80.4113V82.227C59.1282 82.5428 58.8914 82.7954 58.5756 82.7954Z" fill="url(#paint9_linear_105_2)"/>
<path opacity="0.1" d="M69.4225 4.31029V90.7055C69.4225 93.0896 67.4963 95.0158 65.1122 95.0158H4.31029C1.92621 95 0 93.0738 0 90.7055V89.2056C37.0874 73.8906 54.3601 15.1571 58.2599 0H65.1122C67.4963 0 69.4225 1.92621 69.4225 4.31029Z" fill="#1A6FB5" fill-opacity="0.4"/>
<path d="M23.222 11.8424L19.7791 16.9517C19.5411 17.2997 19.9989 17.7209 20.3285 17.4279L23.7164 14.4795C23.808 14.4062 23.9362 14.4612 23.9362 14.5893V23.8008C23.9362 23.929 23.7714 23.9839 23.6981 23.8923L13.4428 11.6226C13.1132 11.2198 12.6371 11 12.106 11H11.7397C10.7875 11 10 11.7875 10 12.758V25.7236C10 26.6942 10.7875 27.4817 11.758 27.4817C12.3624 27.4817 12.9301 27.1704 13.2597 26.6393L16.7026 21.53C16.9406 21.182 16.4828 20.7608 16.1532 21.0538L12.7653 23.9839C12.6737 24.0572 12.5455 24.0022 12.5455 23.874V14.6809C12.5455 14.5527 12.7103 14.4978 12.7836 14.5893L23.0388 26.859C23.3685 27.2619 23.8629 27.4817 24.3757 27.4817H24.742C25.7125 27.4817 26.5 26.6942 26.5 25.7236V12.758C26.5 11.7875 25.7125 11 24.742 11C24.1193 11 23.5516 11.3113 23.222 11.8424Z" fill="url(#paint10_linear_105_2)"/>
</g>
<defs>
<linearGradient id="paint0_linear_105_2" x1="95" y1="126" x2="-6" y2="-5.5" gradientUnits="userSpaceOnUse">
<stop offset="0.3061" stop-color="#5BA7FC"/>
<stop offset="1" stop-color="#69B8FC"/>
</linearGradient>
<linearGradient id="paint1_linear_105_2" x1="8.6241" y1="7.04564" x2="57.9385" y2="78.0313" gradientUnits="userSpaceOnUse">
<stop offset="0.3061" stop-color="white"/>
<stop offset="1" stop-color="white"/>
</linearGradient>
<linearGradient id="paint2_linear_105_2" x1="10.2905" y1="38.2072" x2="59.1354" y2="38.2072" gradientUnits="userSpaceOnUse">
<stop stop-color="#6CBCFC"/>
<stop offset="1" stop-color="#458DFC"/>
</linearGradient>
<linearGradient id="paint3_linear_105_2" x1="34.3248" y1="15.5844" x2="59.1354" y2="15.5844" gradientUnits="userSpaceOnUse">
<stop stop-color="#6CBCFC"/>
<stop offset="1" stop-color="#458DFC"/>
</linearGradient>
<linearGradient id="paint4_linear_105_2" x1="34.3248" y1="23.2616" x2="52.1255" y2="23.2616" gradientUnits="userSpaceOnUse">
<stop stop-color="#6CBCFC"/>
<stop offset="1" stop-color="#458DFC"/>
</linearGradient>
<linearGradient id="paint5_linear_105_2" x1="10.2905" y1="46.8317" x2="59.1354" y2="46.8317" gradientUnits="userSpaceOnUse">
<stop stop-color="#6CBCFC"/>
<stop offset="1" stop-color="#458DFC"/>
</linearGradient>
<linearGradient id="paint6_linear_105_2" x1="10.2905" y1="55.4562" x2="59.1354" y2="55.4562" gradientUnits="userSpaceOnUse">
<stop stop-color="#6CBCFC"/>
<stop offset="1" stop-color="#458DFC"/>
</linearGradient>
<linearGradient id="paint7_linear_105_2" x1="10.2905" y1="64.0806" x2="59.1354" y2="64.0806" gradientUnits="userSpaceOnUse">
<stop stop-color="#6CBCFC"/>
<stop offset="1" stop-color="#458DFC"/>
</linearGradient>
<linearGradient id="paint8_linear_105_2" x1="10.2905" y1="72.7051" x2="59.1354" y2="72.7051" gradientUnits="userSpaceOnUse">
<stop stop-color="#6CBCFC"/>
<stop offset="1" stop-color="#458DFC"/>
</linearGradient>
<linearGradient id="paint9_linear_105_2" x1="10.2905" y1="81.3296" x2="59.1354" y2="81.3296" gradientUnits="userSpaceOnUse">
<stop stop-color="#6CBCFC"/>
<stop offset="1" stop-color="#458DFC"/>
</linearGradient>
<linearGradient id="paint10_linear_105_2" x1="18.25" y1="11" x2="18.25" y2="27.4817" gradientUnits="userSpaceOnUse">
<stop stop-color="#B0F4FF"/>
<stop offset="0.302083" stop-color="#80E4FD"/>
<stop offset="0.994692" stop-color="#6CDDFC"/>
<stop offset="0.994792" stop-color="#80E4FD"/>
</linearGradient>
<clipPath id="clip0_105_2">
<rect width="69.4225" height="95" fill="white"/>
</clipPath>
</defs>
</svg>
